# Blender v2.79 (sub 0) OBJ File: ''
# www.blender.org
mtllib groundCheckered.mtl
o groundCheckered_ID8
v 0.000000 1.000000 1.000000
v 0.000000 1.000000 0.000000
v 1.000000 1.000000 1.000000
v 1.000000 1.000000 0.000000
v 1.000000 -0.000000 1.000000
v 1.000000 0.000000 0.000000
v 0.000000 -0.000000 1.000000
v 0.000000 0.000000 0.000000
vt 0.601170 0.687194
vt 0.313589 0.399613
vt 0.601170 0.399613
vt 0.890083 0.687426
vt 0.602356 0.399991
vt 0.889937 0.399845
vt 0.639435 0.061855
vt 0.927016 0.349437
vt 0.639435 0.349437
vt 0.312735 0.686010
vt 0.025300 0.398282
vt 0.312881 0.398428
vt 0.601625 0.975970
vt 0.313669 0.688763
vt 0.601250 0.688389
vt 0.600780 0.397660
vt 0.313199 0.110079
vt 0.600780 0.110079
vt 0.313589 0.687194
vt 0.602502 0.687572
vt 0.927016 0.061855
vt 0.025154 0.685864
vt 0.314044 0.976344
vt 0.313199 0.397660
vn 0.0000 1.0000 0.0000
vn 1.0000 0.0000 0.0000
vn 0.0000 -1.0000 -0.0000
vn -1.0000 0.0000 0.0000
vn 0.0000 0.0000 -1.0000
vn 0.0000 -0.0000 1.0000
usemtl groundCheckered_base_color
s off
f 4/1/1 1/2/1 3/3/1
f 6/4/2 3/5/2 5/6/2
f 8/7/3 5/8/3 7/9/3
f 2/10/4 7/11/4 1/12/4
f 6/13/5 2/14/5 4/15/5
f 3/16/6 7/17/6 5/18/6
f 4/1/1 2/19/1 1/2/1
f 6/4/2 4/20/2 3/5/2
f 8/7/3 6/21/3 5/8/3
f 2/10/4 8/22/4 7/11/4
f 6/13/5 8/23/5 2/14/5
f 3/16/6 1/24/6 7/17/6
